<?xml version="1.0" standalone="no"?>
<!DOCTYPE svg PUBLIC "-//W3C//DTD SVG 20010904//EN"
 "http://www.w3.org/TR/2001/REC-SVG-20010904/DTD/svg10.dtd">
<svg version="1.0" xmlns="http://www.w3.org/2000/svg"
 width="64.000000pt" height="65.000000pt" viewBox="0 0 64.000000 65.000000"
 preserveAspectRatio="xMidYMid meet">

<g transform="translate(0.000000,65.000000) scale(0.100000,-0.100000)"
fill="#000000" stroke="none">
<path d="M204 639 c-3 -6 8 -24 25 -39 17 -16 31 -33 31 -37 0 -4 -10 -27 -22
-50 l-22 -41 -51 5 c-64 7 -118 -15 -145 -59 -49 -78 15 -168 120 -168 l40 0
-6 -40 c-19 -115 104 -233 194 -186 62 32 110 127 98 192 l-7 34 41 0 c105 0
169 90 120 168 -28 45 -80 66 -148 59 -52 -6 -52 -5 -67 29 -8 19 -19 34 -24
34 -21 0 -11 23 25 57 27 25 34 37 26 45 -15 15 -58 -14 -80 -53 -21 -37 -47
-37 -66 0 -8 15 -26 35 -40 45 -30 19 -33 19 -42 5z m161 -139 c22 -25 16 -59
-17 -83 l-26 -20 -31 22 c-43 31 -42 74 3 98 23 13 50 7 71 -17z m-150 -76
c18 -8 42 -26 54 -38 l22 -24 -38 -31 c-50 -41 -103 -56 -149 -41 -100 33 -76
150 32 150 25 0 61 -7 79 -16z m359 -9 c68 -63 -11 -153 -112 -126 -21 6 -55
25 -76 43 l-38 33 24 22 c62 59 155 72 202 28z m-210 -120 c18 -9 39 -28 49
-44 l16 -28 -54 14 c-47 12 -63 12 -110 0 l-54 -14 16 28 c17 28 64 58 91 59
8 0 28 -7 46 -15z m19 -96 c43 -12 54 -28 38 -58 -10 -18 -13 -19 -39 -5 -35
18 -89 18 -126 -1 -34 -18 -36 -17 -39 21 -2 24 3 30 33 41 44 15 84 16 133 2z
m-8 -102 c17 -13 17 -15 -6 -30 -30 -22 -68 -22 -98 0 -23 15 -23 17 -6 30 24
17 86 17 110 0z"/>
</g>
</svg>
